<mxfile host="app.diagrams.net" modified="2022-04-19T08:57:09.352Z" agent="5.0 (Macintosh; Intel Mac OS X 10_15_7) AppleWebKit/537.36 (KHTML, like Gecko) Chrome/100.0.4896.88 Safari/537.36" etag="oK8CeLo3Wq5MxIuRQyi5" version="17.4.4" type="github">
  <diagram id="GC6-99Irk2Z63G8KT9ye" name="Page-1">
    <mxGraphModel dx="1426" dy="-393" grid="1" gridSize="10" guides="1" tooltips="1" connect="1" arrows="1" fold="1" page="1" pageScale="1" pageWidth="827" pageHeight="1169" math="0" shadow="0">
      <root>
        <mxCell id="0" />
        <mxCell id="1" parent="0" />
        <mxCell id="rUWgfQ_uyFMM_7ScdRQF-1" value="" style="verticalLabelPosition=bottom;verticalAlign=top;html=1;shape=mxgraph.basic.rect;fillColor2=none;strokeWidth=1;size=20;indent=5;dashed=1;fontSize=14;fontColor=#000000;fillColor=#FFFFFF;" vertex="1" parent="1">
          <mxGeometry x="1750" y="2092" width="900" height="478" as="geometry" />
        </mxCell>
        <mxCell id="rUWgfQ_uyFMM_7ScdRQF-2" value="" style="verticalLabelPosition=bottom;verticalAlign=top;html=1;shape=mxgraph.basic.rect;fillColor2=none;strokeWidth=1;size=20;indent=5;fontSize=14;fontColor=#000000;fillColor=#FFFFFF;dashed=1;" vertex="1" parent="1">
          <mxGeometry x="1280" y="2350" width="460" height="510" as="geometry" />
        </mxCell>
        <mxCell id="rUWgfQ_uyFMM_7ScdRQF-3" value="" style="shape=ext;double=1;whiteSpace=wrap;html=1;aspect=fixed;" vertex="1" parent="1">
          <mxGeometry x="760" y="2212" width="260" height="260" as="geometry" />
        </mxCell>
        <mxCell id="rUWgfQ_uyFMM_7ScdRQF-4" value="空间数据库" style="shape=cylinder3;whiteSpace=wrap;html=1;boundedLbl=1;backgroundOutline=1;size=15;" vertex="1" parent="1">
          <mxGeometry x="845" y="2247" width="90" height="50" as="geometry" />
        </mxCell>
        <mxCell id="rUWgfQ_uyFMM_7ScdRQF-5" value="&lt;h1&gt;基础矢量地图&lt;/h1&gt;&lt;p&gt;数据说明文件&amp;nbsp; &amp;nbsp; &amp;nbsp; &amp;nbsp; &amp;nbsp; 数据范围文件&lt;/p&gt;&lt;p&gt;数据字典&lt;/p&gt;&lt;p&gt;元数据文件&lt;/p&gt;&lt;p&gt;&lt;br&gt;&lt;/p&gt;" style="text;html=1;strokeColor=none;fillColor=none;spacing=5;spacingTop=-20;whiteSpace=wrap;overflow=hidden;rounded=0;" vertex="1" parent="1">
          <mxGeometry x="135" y="2062" width="190" height="120" as="geometry" />
        </mxCell>
        <mxCell id="rUWgfQ_uyFMM_7ScdRQF-6" style="edgeStyle=orthogonalEdgeStyle;rounded=0;orthogonalLoop=1;jettySize=auto;html=1;exitX=1;exitY=1;exitDx=0;exitDy=0;" edge="1" parent="1" source="rUWgfQ_uyFMM_7ScdRQF-7">
          <mxGeometry relative="1" as="geometry">
            <mxPoint x="480" y="2332" as="targetPoint" />
          </mxGeometry>
        </mxCell>
        <mxCell id="rUWgfQ_uyFMM_7ScdRQF-7" value="&lt;h1&gt;影像数据&lt;/h1&gt;&lt;p&gt;全幅/分幅&amp;nbsp; &amp;nbsp; &amp;nbsp; &amp;nbsp; &amp;nbsp;数据范围文件&lt;/p&gt;&lt;p&gt;数据说明文件&lt;/p&gt;&lt;p&gt;元数据文件&lt;/p&gt;&lt;p&gt;&lt;br&gt;&lt;/p&gt;" style="text;html=1;strokeColor=none;fillColor=none;spacing=5;spacingTop=-20;whiteSpace=wrap;overflow=hidden;rounded=0;" vertex="1" parent="1">
          <mxGeometry x="130" y="2212" width="190" height="120" as="geometry" />
        </mxCell>
        <mxCell id="rUWgfQ_uyFMM_7ScdRQF-8" style="edgeStyle=orthogonalEdgeStyle;rounded=0;orthogonalLoop=1;jettySize=auto;html=1;exitX=1;exitY=0.75;exitDx=0;exitDy=0;" edge="1" parent="1" source="rUWgfQ_uyFMM_7ScdRQF-9">
          <mxGeometry relative="1" as="geometry">
            <mxPoint x="480" y="2382" as="targetPoint" />
          </mxGeometry>
        </mxCell>
        <mxCell id="rUWgfQ_uyFMM_7ScdRQF-9" value="&lt;h1&gt;三维地形数据&lt;/h1&gt;&lt;p&gt;&amp;nbsp; DOM/DEM&amp;nbsp; &amp;nbsp; &amp;nbsp; 数据范围文件&lt;/p&gt;&lt;p&gt;数据说明文件&lt;/p&gt;&lt;p&gt;元数据文件&lt;/p&gt;&lt;p&gt;&lt;br&gt;&lt;/p&gt;" style="text;html=1;strokeColor=none;fillColor=none;spacing=5;spacingTop=-20;whiteSpace=wrap;overflow=hidden;rounded=0;" vertex="1" parent="1">
          <mxGeometry x="130" y="2352" width="190" height="120" as="geometry" />
        </mxCell>
        <mxCell id="rUWgfQ_uyFMM_7ScdRQF-10" value="&lt;h1&gt;三维倾斜摄影&lt;/h1&gt;&lt;p&gt;测区瓦片/元数据文件&amp;nbsp; &amp;nbsp;LOD&lt;/p&gt;&lt;p&gt;数据说明文件&lt;/p&gt;&lt;p&gt;元数据文件&lt;/p&gt;&lt;p&gt;&lt;br&gt;&lt;/p&gt;" style="text;html=1;strokeColor=none;fillColor=none;spacing=5;spacingTop=-20;whiteSpace=wrap;overflow=hidden;rounded=0;" vertex="1" parent="1">
          <mxGeometry x="130" y="2492" width="190" height="120" as="geometry" />
        </mxCell>
        <mxCell id="rUWgfQ_uyFMM_7ScdRQF-11" value="&lt;h1&gt;应急专题空间数据&lt;/h1&gt;&lt;p&gt;库表，包括业务数据&lt;/p&gt;&lt;p&gt;点以经纬度两个字段表示&lt;/p&gt;&lt;p&gt;线和面使用geometry字段&lt;/p&gt;&lt;p&gt;&lt;br&gt;&lt;/p&gt;&lt;p&gt;&lt;br&gt;&lt;/p&gt;" style="text;html=1;strokeColor=none;fillColor=none;spacing=5;spacingTop=-20;whiteSpace=wrap;overflow=hidden;rounded=0;" vertex="1" parent="1">
          <mxGeometry x="130" y="2632" width="240" height="120" as="geometry" />
        </mxCell>
        <mxCell id="rUWgfQ_uyFMM_7ScdRQF-12" value="" style="edgeStyle=orthogonalEdgeStyle;rounded=0;orthogonalLoop=1;jettySize=auto;html=1;" edge="1" parent="1" source="rUWgfQ_uyFMM_7ScdRQF-13" target="rUWgfQ_uyFMM_7ScdRQF-19">
          <mxGeometry relative="1" as="geometry" />
        </mxCell>
        <mxCell id="rUWgfQ_uyFMM_7ScdRQF-13" value="" style="rounded=1;whiteSpace=wrap;html=1;strokeWidth=2;fillWeight=4;hachureGap=8;hachureAngle=45;fillColor=#1ba1e2;sketch=1;" vertex="1" parent="1">
          <mxGeometry x="500" y="2322" width="120" height="60" as="geometry" />
        </mxCell>
        <mxCell id="rUWgfQ_uyFMM_7ScdRQF-14" style="edgeStyle=orthogonalEdgeStyle;rounded=0;orthogonalLoop=1;jettySize=auto;html=1;exitX=0.75;exitY=1;exitDx=0;exitDy=0;entryX=0;entryY=0.5;entryDx=0;entryDy=0;entryPerimeter=0;" edge="1" parent="1" source="rUWgfQ_uyFMM_7ScdRQF-16" target="rUWgfQ_uyFMM_7ScdRQF-21">
          <mxGeometry relative="1" as="geometry">
            <mxPoint x="770" y="2622" as="targetPoint" />
          </mxGeometry>
        </mxCell>
        <mxCell id="rUWgfQ_uyFMM_7ScdRQF-15" style="edgeStyle=orthogonalEdgeStyle;rounded=0;orthogonalLoop=1;jettySize=auto;html=1;exitX=0.5;exitY=1;exitDx=0;exitDy=0;entryX=0;entryY=0.5;entryDx=0;entryDy=0;" edge="1" parent="1" source="rUWgfQ_uyFMM_7ScdRQF-16" target="rUWgfQ_uyFMM_7ScdRQF-41">
          <mxGeometry relative="1" as="geometry" />
        </mxCell>
        <mxCell id="rUWgfQ_uyFMM_7ScdRQF-16" value="汇聚" style="text;html=1;strokeColor=none;fillColor=none;align=center;verticalAlign=middle;whiteSpace=wrap;rounded=0;" vertex="1" parent="1">
          <mxGeometry x="500" y="2397" width="120" height="30" as="geometry" />
        </mxCell>
        <mxCell id="rUWgfQ_uyFMM_7ScdRQF-17" value="文件存储/对象存储" style="shape=cylinder3;whiteSpace=wrap;html=1;boundedLbl=1;backgroundOutline=1;size=15;" vertex="1" parent="1">
          <mxGeometry x="832.5" y="2342" width="115" height="50" as="geometry" />
        </mxCell>
        <mxCell id="rUWgfQ_uyFMM_7ScdRQF-18" value="数据资源池" style="text;html=1;strokeColor=none;fillColor=none;align=center;verticalAlign=middle;whiteSpace=wrap;rounded=0;" vertex="1" parent="1">
          <mxGeometry x="850" y="2182" width="80" height="30" as="geometry" />
        </mxCell>
        <mxCell id="rUWgfQ_uyFMM_7ScdRQF-19" value="" style="shape=singleArrow;whiteSpace=wrap;html=1;arrowWidth=0.4;arrowSize=0.4;fillColor=#1ba1e2;rounded=1;strokeWidth=2;fillWeight=4;hachureGap=8;hachureAngle=45;sketch=1;" vertex="1" parent="1">
          <mxGeometry x="680" y="2322" width="80" height="60" as="geometry" />
        </mxCell>
        <mxCell id="rUWgfQ_uyFMM_7ScdRQF-20" style="edgeStyle=orthogonalEdgeStyle;rounded=0;orthogonalLoop=1;jettySize=auto;html=1;exitX=1;exitY=0.5;exitDx=0;exitDy=0;exitPerimeter=0;" edge="1" parent="1" source="rUWgfQ_uyFMM_7ScdRQF-21">
          <mxGeometry relative="1" as="geometry">
            <mxPoint x="1280" y="2552" as="targetPoint" />
          </mxGeometry>
        </mxCell>
        <mxCell id="rUWgfQ_uyFMM_7ScdRQF-21" value="汇聚任务数据库" style="shape=cylinder3;whiteSpace=wrap;html=1;boundedLbl=1;backgroundOutline=1;size=15;" vertex="1" parent="1">
          <mxGeometry x="832.5" y="2527" width="115" height="50" as="geometry" />
        </mxCell>
        <mxCell id="rUWgfQ_uyFMM_7ScdRQF-22" value="数据汇聚" style="text;html=1;strokeColor=none;fillColor=none;align=center;verticalAlign=middle;whiteSpace=wrap;rounded=0;" vertex="1" parent="1">
          <mxGeometry x="365" y="2292" width="60" height="30" as="geometry" />
        </mxCell>
        <mxCell id="rUWgfQ_uyFMM_7ScdRQF-23" value="数据描述性文件汇聚" style="text;html=1;strokeColor=none;fillColor=none;align=center;verticalAlign=middle;whiteSpace=wrap;rounded=0;" vertex="1" parent="1">
          <mxGeometry x="320" y="2452" width="120" height="20" as="geometry" />
        </mxCell>
        <mxCell id="rUWgfQ_uyFMM_7ScdRQF-24" value="&lt;h1&gt;汇聚过程元数据&lt;/h1&gt;&lt;p&gt;1、汇聚的业务属性信息&lt;/p&gt;&lt;p&gt;2、数据位置&lt;/p&gt;&lt;p&gt;3、数据的描述文件位置&lt;/p&gt;&lt;p&gt;4、增量汇聚的区划信息&lt;/p&gt;&lt;p&gt;5、汇聚任务信息&lt;/p&gt;" style="text;html=1;strokeColor=none;fillColor=none;spacing=5;spacingTop=-20;whiteSpace=wrap;overflow=hidden;rounded=0;" vertex="1" parent="1">
          <mxGeometry x="615" y="2492" width="185" height="170" as="geometry" />
        </mxCell>
        <mxCell id="rUWgfQ_uyFMM_7ScdRQF-25" value="Hbase/Mysql&lt;br&gt;按量级" style="text;html=1;strokeColor=none;fillColor=none;align=center;verticalAlign=middle;whiteSpace=wrap;rounded=0;" vertex="1" parent="1">
          <mxGeometry x="850" y="2577" width="80" height="40" as="geometry" />
        </mxCell>
        <mxCell id="rUWgfQ_uyFMM_7ScdRQF-26" value="优先支持高斯和PG" style="text;html=1;strokeColor=none;fillColor=none;align=center;verticalAlign=middle;whiteSpace=wrap;rounded=0;" vertex="1" parent="1">
          <mxGeometry x="830" y="2302" width="120" height="30" as="geometry" />
        </mxCell>
        <mxCell id="rUWgfQ_uyFMM_7ScdRQF-27" value="优先支持obs" style="text;html=1;strokeColor=none;fillColor=none;align=center;verticalAlign=middle;whiteSpace=wrap;rounded=0;" vertex="1" parent="1">
          <mxGeometry x="850" y="2402" width="80" height="30" as="geometry" />
        </mxCell>
        <mxCell id="rUWgfQ_uyFMM_7ScdRQF-28" style="edgeStyle=orthogonalEdgeStyle;rounded=0;orthogonalLoop=1;jettySize=auto;html=1;exitX=0.25;exitY=1;exitDx=0;exitDy=0;entryX=0.885;entryY=-0.01;entryDx=0;entryDy=0;entryPerimeter=0;fontSize=18;fontColor=#FF6666;" edge="1" parent="1" source="rUWgfQ_uyFMM_7ScdRQF-29" target="rUWgfQ_uyFMM_7ScdRQF-61">
          <mxGeometry relative="1" as="geometry" />
        </mxCell>
        <mxCell id="rUWgfQ_uyFMM_7ScdRQF-29" value="矢量数据处理" style="swimlane;startSize=20;horizontal=0;childLayout=treeLayout;horizontalTree=1;resizable=0;containerType=tree;" vertex="1" parent="1">
          <mxGeometry x="2290" y="2120" width="310" height="320" as="geometry" />
        </mxCell>
        <mxCell id="rUWgfQ_uyFMM_7ScdRQF-30" value="非空间数据&lt;br&gt;/空间数据" style="whiteSpace=wrap;html=1;" vertex="1" parent="rUWgfQ_uyFMM_7ScdRQF-29">
          <mxGeometry x="40" y="140" width="100" height="40" as="geometry" />
        </mxCell>
        <mxCell id="rUWgfQ_uyFMM_7ScdRQF-31" value="信息提取" style="whiteSpace=wrap;html=1;" vertex="1" parent="rUWgfQ_uyFMM_7ScdRQF-29">
          <mxGeometry x="190" y="20" width="100" height="40" as="geometry" />
        </mxCell>
        <mxCell id="rUWgfQ_uyFMM_7ScdRQF-32" value="" style="edgeStyle=elbowEdgeStyle;elbow=horizontal;html=1;rounded=0;" edge="1" parent="rUWgfQ_uyFMM_7ScdRQF-29" source="rUWgfQ_uyFMM_7ScdRQF-30" target="rUWgfQ_uyFMM_7ScdRQF-31">
          <mxGeometry relative="1" as="geometry" />
        </mxCell>
        <mxCell id="rUWgfQ_uyFMM_7ScdRQF-33" value="数据格式转换" style="whiteSpace=wrap;html=1;" vertex="1" parent="rUWgfQ_uyFMM_7ScdRQF-29">
          <mxGeometry x="190" y="100" width="100" height="40" as="geometry" />
        </mxCell>
        <mxCell id="rUWgfQ_uyFMM_7ScdRQF-34" value="" style="edgeStyle=elbowEdgeStyle;elbow=horizontal;html=1;rounded=0;" edge="1" parent="rUWgfQ_uyFMM_7ScdRQF-29" source="rUWgfQ_uyFMM_7ScdRQF-30" target="rUWgfQ_uyFMM_7ScdRQF-33">
          <mxGeometry relative="1" as="geometry" />
        </mxCell>
        <mxCell id="rUWgfQ_uyFMM_7ScdRQF-35" value="" style="edgeStyle=elbowEdgeStyle;elbow=horizontal;html=1;rounded=0;" edge="1" parent="rUWgfQ_uyFMM_7ScdRQF-29" source="rUWgfQ_uyFMM_7ScdRQF-30" target="rUWgfQ_uyFMM_7ScdRQF-36">
          <mxGeometry relative="1" as="geometry">
            <mxPoint x="2050" y="2302" as="sourcePoint" />
          </mxGeometry>
        </mxCell>
        <mxCell id="rUWgfQ_uyFMM_7ScdRQF-36" value="非空间数据空间化" style="whiteSpace=wrap;html=1;fillColor=#FF6666;" vertex="1" parent="rUWgfQ_uyFMM_7ScdRQF-29">
          <mxGeometry x="190" y="260" width="100" height="40" as="geometry" />
        </mxCell>
        <mxCell id="rUWgfQ_uyFMM_7ScdRQF-37" value="" style="edgeStyle=elbowEdgeStyle;elbow=horizontal;html=1;rounded=0;" edge="1" parent="rUWgfQ_uyFMM_7ScdRQF-29" source="rUWgfQ_uyFMM_7ScdRQF-30" target="rUWgfQ_uyFMM_7ScdRQF-38">
          <mxGeometry relative="1" as="geometry">
            <mxPoint x="2050" y="2382" as="sourcePoint" />
          </mxGeometry>
        </mxCell>
        <mxCell id="rUWgfQ_uyFMM_7ScdRQF-38" value="坐标系转换" style="whiteSpace=wrap;html=1;" vertex="1" parent="rUWgfQ_uyFMM_7ScdRQF-29">
          <mxGeometry x="190" y="180" width="100" height="40" as="geometry" />
        </mxCell>
        <mxCell id="rUWgfQ_uyFMM_7ScdRQF-39" value="基于资产视角" style="text;html=1;strokeColor=#FFFF99;fillColor=#FF3333;align=center;verticalAlign=middle;whiteSpace=wrap;rounded=0;" vertex="1" parent="rUWgfQ_uyFMM_7ScdRQF-29">
          <mxGeometry x="47.5" y="70" width="85" height="30" as="geometry" />
        </mxCell>
        <mxCell id="rUWgfQ_uyFMM_7ScdRQF-40" style="edgeStyle=orthogonalEdgeStyle;rounded=0;orthogonalLoop=1;jettySize=auto;html=1;entryX=-0.005;entryY=0.347;entryDx=0;entryDy=0;entryPerimeter=0;" edge="1" parent="1" source="rUWgfQ_uyFMM_7ScdRQF-41" target="rUWgfQ_uyFMM_7ScdRQF-46">
          <mxGeometry relative="1" as="geometry">
            <mxPoint x="1260" y="2600" as="targetPoint" />
            <Array as="points">
              <mxPoint x="1250" y="2832" />
              <mxPoint x="1250" y="2433" />
            </Array>
          </mxGeometry>
        </mxCell>
        <mxCell id="rUWgfQ_uyFMM_7ScdRQF-41" value="" style="rounded=1;whiteSpace=wrap;html=1;strokeWidth=2;fillWeight=4;hachureGap=8;hachureAngle=45;fillColor=#1ba1e2;sketch=1;" vertex="1" parent="1">
          <mxGeometry x="720" y="2802" width="400" height="60" as="geometry" />
        </mxCell>
        <mxCell id="rUWgfQ_uyFMM_7ScdRQF-42" value="待设计" style="text;html=1;strokeColor=none;fillColor=none;align=center;verticalAlign=middle;whiteSpace=wrap;rounded=0;" vertex="1" parent="1">
          <mxGeometry x="855" y="2752" width="115" height="40" as="geometry" />
        </mxCell>
        <mxCell id="rUWgfQ_uyFMM_7ScdRQF-43" value="&lt;font style=&quot;font-size: 18px&quot;&gt;汇聚后数据质量&lt;/font&gt;&lt;br&gt;&lt;br&gt;&lt;font color=&quot;#ff6666&quot;&gt;减灾版本怎么进主线&lt;/font&gt;" style="text;html=1;strokeColor=none;fillColor=none;align=center;verticalAlign=middle;whiteSpace=wrap;rounded=0;" vertex="1" parent="1">
          <mxGeometry x="580" y="2735" width="160" height="25" as="geometry" />
        </mxCell>
        <mxCell id="rUWgfQ_uyFMM_7ScdRQF-44" value="多模态数据质量" style="text;strokeColor=none;fillColor=none;html=1;fontSize=24;fontStyle=1;verticalAlign=middle;align=center;" vertex="1" parent="1">
          <mxGeometry x="870" y="2890" width="100" height="40" as="geometry" />
        </mxCell>
        <mxCell id="rUWgfQ_uyFMM_7ScdRQF-45" value="空间数据汇聚" style="text;strokeColor=none;fillColor=none;html=1;fontSize=24;fontStyle=1;verticalAlign=middle;align=center;" vertex="1" parent="1">
          <mxGeometry x="515" y="2387" width="100" height="40" as="geometry" />
        </mxCell>
        <mxCell id="rUWgfQ_uyFMM_7ScdRQF-46" value="" style="rounded=1;whiteSpace=wrap;html=1;strokeWidth=2;fillWeight=4;hachureGap=8;hachureAngle=45;fillColor=#1ba1e2;sketch=1;" vertex="1" parent="1">
          <mxGeometry x="1310" y="2412" width="190" height="60" as="geometry" />
        </mxCell>
        <mxCell id="rUWgfQ_uyFMM_7ScdRQF-47" value="多模态资产管理" style="text;strokeColor=none;fillColor=none;html=1;fontSize=24;fontStyle=1;verticalAlign=middle;align=center;" vertex="1" parent="1">
          <mxGeometry x="1355" y="2369" width="100" height="40" as="geometry" />
        </mxCell>
        <mxCell id="rUWgfQ_uyFMM_7ScdRQF-48" value="" style="edgeStyle=orthogonalEdgeStyle;startArrow=none;endArrow=none;rounded=0;targetPortConstraint=eastwest;sourcePortConstraint=northsouth;" edge="1" parent="1" target="rUWgfQ_uyFMM_7ScdRQF-50">
          <mxGeometry relative="1" as="geometry">
            <mxPoint x="1410" y="2507" as="sourcePoint" />
          </mxGeometry>
        </mxCell>
        <mxCell id="rUWgfQ_uyFMM_7ScdRQF-49" value="" style="edgeStyle=orthogonalEdgeStyle;startArrow=none;endArrow=none;rounded=0;targetPortConstraint=eastwest;sourcePortConstraint=northsouth;" edge="1" parent="1" target="rUWgfQ_uyFMM_7ScdRQF-51">
          <mxGeometry relative="1" as="geometry">
            <mxPoint x="1410" y="2507" as="sourcePoint" />
          </mxGeometry>
        </mxCell>
        <mxCell id="rUWgfQ_uyFMM_7ScdRQF-50" value="空间资产创建，元数据解析、预览" style="whiteSpace=wrap;html=1;align=center;verticalAlign=middle;treeFolding=1;treeMoving=1;" vertex="1" parent="1">
          <mxGeometry x="1300" y="2547" width="100" height="60" as="geometry" />
        </mxCell>
        <mxCell id="rUWgfQ_uyFMM_7ScdRQF-51" value="瓦片管理&lt;br&gt;栅格/矢量" style="whiteSpace=wrap;html=1;align=center;verticalAlign=middle;treeFolding=1;treeMoving=1;" vertex="1" parent="1">
          <mxGeometry x="1420" y="2547" width="100" height="60" as="geometry" />
        </mxCell>
        <mxCell id="rUWgfQ_uyFMM_7ScdRQF-52" value="1、汇聚元数据解析&lt;br&gt;2、空间资产创建&lt;br&gt;3、按空间资产类型提取数据/元数据位置&lt;br&gt;4、空间资产元数据文件解析&lt;br&gt;5、实时变化通知" style="text;html=1;strokeColor=none;fillColor=none;align=center;verticalAlign=middle;whiteSpace=wrap;rounded=0;" vertex="1" parent="1">
          <mxGeometry x="980" y="2553.5" width="270" height="86.5" as="geometry" />
        </mxCell>
        <mxCell id="rUWgfQ_uyFMM_7ScdRQF-53" value="瓦片管理" style="swimlane;startSize=20;horizontal=1;childLayout=treeLayout;horizontalTree=0;resizable=0;containerType=tree;" vertex="1" parent="1">
          <mxGeometry x="1420" y="2617" width="280" height="190" as="geometry" />
        </mxCell>
        <mxCell id="rUWgfQ_uyFMM_7ScdRQF-54" value="Root" style="whiteSpace=wrap;html=1;" vertex="1" parent="rUWgfQ_uyFMM_7ScdRQF-53">
          <mxGeometry x="90" y="40" width="100" height="40" as="geometry" />
        </mxCell>
        <mxCell id="rUWgfQ_uyFMM_7ScdRQF-55" value="快速瓦片制作" style="whiteSpace=wrap;html=1;" vertex="1" parent="rUWgfQ_uyFMM_7ScdRQF-53">
          <mxGeometry x="20" y="130" width="100" height="40" as="geometry" />
        </mxCell>
        <mxCell id="rUWgfQ_uyFMM_7ScdRQF-56" value="" style="edgeStyle=elbowEdgeStyle;elbow=vertical;html=1;rounded=0;" edge="1" parent="rUWgfQ_uyFMM_7ScdRQF-53" source="rUWgfQ_uyFMM_7ScdRQF-54" target="rUWgfQ_uyFMM_7ScdRQF-55">
          <mxGeometry relative="1" as="geometry" />
        </mxCell>
        <mxCell id="rUWgfQ_uyFMM_7ScdRQF-57" value="瓦片存储管理" style="whiteSpace=wrap;html=1;" vertex="1" parent="rUWgfQ_uyFMM_7ScdRQF-53">
          <mxGeometry x="160" y="130" width="100" height="40" as="geometry" />
        </mxCell>
        <mxCell id="rUWgfQ_uyFMM_7ScdRQF-58" value="" style="edgeStyle=elbowEdgeStyle;elbow=vertical;html=1;rounded=0;" edge="1" parent="rUWgfQ_uyFMM_7ScdRQF-53" source="rUWgfQ_uyFMM_7ScdRQF-54" target="rUWgfQ_uyFMM_7ScdRQF-57">
          <mxGeometry relative="1" as="geometry" />
        </mxCell>
        <mxCell id="rUWgfQ_uyFMM_7ScdRQF-59" style="edgeStyle=orthogonalEdgeStyle;rounded=0;orthogonalLoop=1;jettySize=auto;html=1;entryX=0.5;entryY=1;entryDx=0;entryDy=0;fontSize=18;" edge="1" parent="1" source="rUWgfQ_uyFMM_7ScdRQF-61" target="rUWgfQ_uyFMM_7ScdRQF-85">
          <mxGeometry relative="1" as="geometry" />
        </mxCell>
        <mxCell id="rUWgfQ_uyFMM_7ScdRQF-60" style="edgeStyle=orthogonalEdgeStyle;rounded=0;orthogonalLoop=1;jettySize=auto;html=1;exitX=1;exitY=0;exitDx=0;exitDy=0;fontSize=18;fontColor=#FF6666;" edge="1" parent="1" source="rUWgfQ_uyFMM_7ScdRQF-61">
          <mxGeometry relative="1" as="geometry">
            <mxPoint x="2400.0000000000005" y="2440" as="targetPoint" />
          </mxGeometry>
        </mxCell>
        <mxCell id="rUWgfQ_uyFMM_7ScdRQF-61" value="" style="shape=ext;double=1;whiteSpace=wrap;html=1;aspect=fixed;" vertex="1" parent="1">
          <mxGeometry x="2110" y="2600" width="290" height="290" as="geometry" />
        </mxCell>
        <mxCell id="rUWgfQ_uyFMM_7ScdRQF-62" value="空间数据库" style="shape=cylinder3;whiteSpace=wrap;html=1;boundedLbl=1;backgroundOutline=1;size=15;" vertex="1" parent="1">
          <mxGeometry x="2210" y="2625" width="90" height="50" as="geometry" />
        </mxCell>
        <mxCell id="rUWgfQ_uyFMM_7ScdRQF-63" value="文件存储/对象存储" style="shape=cylinder3;whiteSpace=wrap;html=1;boundedLbl=1;backgroundOutline=1;size=15;" vertex="1" parent="1">
          <mxGeometry x="2197.5" y="2720" width="115" height="50" as="geometry" />
        </mxCell>
        <mxCell id="rUWgfQ_uyFMM_7ScdRQF-64" value="数据资源池" style="text;html=1;strokeColor=none;fillColor=none;align=center;verticalAlign=middle;whiteSpace=wrap;rounded=0;" vertex="1" parent="1">
          <mxGeometry x="2220" y="2900" width="80" height="30" as="geometry" />
        </mxCell>
        <mxCell id="rUWgfQ_uyFMM_7ScdRQF-65" value="高斯和PG" style="text;html=1;strokeColor=none;fillColor=none;align=center;verticalAlign=middle;whiteSpace=wrap;rounded=0;" vertex="1" parent="1">
          <mxGeometry x="2195" y="2680" width="120" height="30" as="geometry" />
        </mxCell>
        <mxCell id="rUWgfQ_uyFMM_7ScdRQF-66" value="mongoDB文档" style="shape=cylinder3;whiteSpace=wrap;html=1;boundedLbl=1;backgroundOutline=1;size=15;" vertex="1" parent="1">
          <mxGeometry x="2202.5" y="2812" width="115" height="50" as="geometry" />
        </mxCell>
        <mxCell id="rUWgfQ_uyFMM_7ScdRQF-67" style="edgeStyle=orthogonalEdgeStyle;rounded=0;orthogonalLoop=1;jettySize=auto;html=1;exitX=0.5;exitY=1;exitDx=0;exitDy=0;entryX=0;entryY=0;entryDx=0;entryDy=30;entryPerimeter=0;" edge="1" parent="1" source="rUWgfQ_uyFMM_7ScdRQF-57" target="rUWgfQ_uyFMM_7ScdRQF-66">
          <mxGeometry relative="1" as="geometry" />
        </mxCell>
        <mxCell id="rUWgfQ_uyFMM_7ScdRQF-68" value="瓦片存储" style="text;strokeColor=none;fillColor=none;html=1;fontSize=24;fontStyle=1;verticalAlign=middle;align=center;" vertex="1" parent="1">
          <mxGeometry x="1860" y="2802" width="100" height="40" as="geometry" />
        </mxCell>
        <mxCell id="rUWgfQ_uyFMM_7ScdRQF-69" value="" style="shape=singleArrow;whiteSpace=wrap;html=1;arrowWidth=0.4;arrowSize=0.4;fillColor=#1ba1e2;rounded=1;strokeWidth=2;fillWeight=4;hachureGap=8;hachureAngle=45;sketch=1;" vertex="1" parent="1">
          <mxGeometry x="1660" y="2409" width="80" height="60" as="geometry" />
        </mxCell>
        <mxCell id="rUWgfQ_uyFMM_7ScdRQF-70" value="&lt;h1&gt;&lt;font style=&quot;font-size: 18px&quot; color=&quot;#ff0000&quot;&gt;空间资产质检&lt;/font&gt;&lt;/h1&gt;&lt;p&gt;&lt;font color=&quot;#ff0000&quot;&gt;1、矢量文件/库表&lt;/font&gt;&lt;/p&gt;&lt;p&gt;&lt;font color=&quot;#ff0000&quot;&gt;2、影像文件&lt;/font&gt;&lt;/p&gt;&lt;p&gt;&lt;font color=&quot;#ff0000&quot;&gt;3、数据位置由资产提供&lt;/font&gt;&lt;/p&gt;&lt;p&gt;&lt;br&gt;&lt;/p&gt;" style="text;html=1;strokeColor=none;fillColor=none;spacing=5;spacingTop=-20;whiteSpace=wrap;overflow=hidden;rounded=0;" vertex="1" parent="1">
          <mxGeometry x="1145" y="2650.5" width="210" height="123" as="geometry" />
        </mxCell>
        <mxCell id="rUWgfQ_uyFMM_7ScdRQF-71" value="" style="rounded=1;whiteSpace=wrap;html=1;strokeWidth=2;fillWeight=4;hachureGap=8;hachureAngle=45;fillColor=#1ba1e2;sketch=1;" vertex="1" parent="1">
          <mxGeometry x="1780" y="2322" width="190" height="60" as="geometry" />
        </mxCell>
        <mxCell id="rUWgfQ_uyFMM_7ScdRQF-72" value="多模态数据处理" style="text;strokeColor=none;fillColor=none;html=1;fontSize=24;fontStyle=1;verticalAlign=middle;align=center;" vertex="1" parent="1">
          <mxGeometry x="1825" y="2262" width="100" height="40" as="geometry" />
        </mxCell>
        <mxCell id="rUWgfQ_uyFMM_7ScdRQF-73" value="" style="verticalLabelPosition=bottom;verticalAlign=top;html=1;shape=mxgraph.basic.rect;fillColor2=none;strokeWidth=1;size=20;indent=5;fontSize=18;fillColor=#FFFFFF;" vertex="1" parent="1">
          <mxGeometry x="2060" y="2123.25" width="135" height="48" as="geometry" />
        </mxCell>
        <mxCell id="rUWgfQ_uyFMM_7ScdRQF-74" value="工作流调度" style="text;html=1;strokeColor=none;fillColor=none;align=center;verticalAlign=middle;whiteSpace=wrap;rounded=0;fontSize=18;" vertex="1" parent="1">
          <mxGeometry x="2070" y="2133" width="110" height="27" as="geometry" />
        </mxCell>
        <mxCell id="rUWgfQ_uyFMM_7ScdRQF-75" value="" style="verticalLabelPosition=bottom;verticalAlign=top;html=1;shape=mxgraph.basic.rect;fillColor2=none;strokeWidth=1;size=20;indent=5;fontSize=18;fillColor=#FFFFFF;" vertex="1" parent="1">
          <mxGeometry x="2060" y="2212" width="135" height="48" as="geometry" />
        </mxCell>
        <mxCell id="rUWgfQ_uyFMM_7ScdRQF-76" value="空间规则库" style="text;html=1;strokeColor=none;fillColor=none;align=center;verticalAlign=middle;whiteSpace=wrap;rounded=0;fontSize=18;" vertex="1" parent="1">
          <mxGeometry x="2070" y="2221.75" width="110" height="27" as="geometry" />
        </mxCell>
        <mxCell id="rUWgfQ_uyFMM_7ScdRQF-77" value="" style="verticalLabelPosition=bottom;verticalAlign=top;html=1;shape=mxgraph.basic.rect;fillColor2=none;strokeWidth=1;size=20;indent=5;fontSize=18;fillColor=#FFFFFF;" vertex="1" parent="1">
          <mxGeometry x="2062.5" y="2304" width="135" height="48" as="geometry" />
        </mxCell>
        <mxCell id="rUWgfQ_uyFMM_7ScdRQF-78" value="空间处理节点" style="text;html=1;strokeColor=none;fillColor=none;align=center;verticalAlign=middle;whiteSpace=wrap;rounded=0;fontSize=18;" vertex="1" parent="1">
          <mxGeometry x="2072.5" y="2313.75" width="110" height="27" as="geometry" />
        </mxCell>
        <mxCell id="rUWgfQ_uyFMM_7ScdRQF-79" value="" style="verticalLabelPosition=bottom;verticalAlign=top;html=1;shape=mxgraph.basic.rect;fillColor2=none;strokeWidth=1;size=20;indent=5;fontSize=18;fillColor=#FFFFFF;" vertex="1" parent="1">
          <mxGeometry x="2062.5" y="2384" width="135" height="48" as="geometry" />
        </mxCell>
        <mxCell id="rUWgfQ_uyFMM_7ScdRQF-80" value="空间任务运维" style="text;html=1;strokeColor=none;fillColor=none;align=center;verticalAlign=middle;whiteSpace=wrap;rounded=0;fontSize=18;" vertex="1" parent="1">
          <mxGeometry x="2072.5" y="2393.75" width="110" height="27" as="geometry" />
        </mxCell>
        <mxCell id="rUWgfQ_uyFMM_7ScdRQF-81" value="" style="shape=singleArrow;whiteSpace=wrap;html=1;arrowWidth=0.4217391304347681;arrowSize=0.42934782608695343;fillColor=#1ba1e2;rounded=1;strokeWidth=2;fillWeight=4;hachureGap=8;hachureAngle=45;sketch=1;" vertex="1" parent="1">
          <mxGeometry x="2210" y="2298" width="80" height="60" as="geometry" />
        </mxCell>
        <mxCell id="rUWgfQ_uyFMM_7ScdRQF-82" style="edgeStyle=orthogonalEdgeStyle;rounded=0;orthogonalLoop=1;jettySize=auto;html=1;entryX=0;entryY=0.358;entryDx=0;entryDy=0;entryPerimeter=0;fontSize=18;exitX=0.75;exitY=1;exitDx=0;exitDy=0;" edge="1" parent="1" source="rUWgfQ_uyFMM_7ScdRQF-85" target="rUWgfQ_uyFMM_7ScdRQF-61">
          <mxGeometry relative="1" as="geometry" />
        </mxCell>
        <mxCell id="rUWgfQ_uyFMM_7ScdRQF-83" style="edgeStyle=orthogonalEdgeStyle;rounded=0;orthogonalLoop=1;jettySize=auto;html=1;entryX=1;entryY=0.75;entryDx=0;entryDy=0;fontSize=18;fontColor=#000000;" edge="1" parent="1" source="rUWgfQ_uyFMM_7ScdRQF-85" target="rUWgfQ_uyFMM_7ScdRQF-51">
          <mxGeometry relative="1" as="geometry" />
        </mxCell>
        <mxCell id="rUWgfQ_uyFMM_7ScdRQF-84" value="&lt;font style=&quot;font-size: 14px&quot;&gt;第三方处理后的瓦片&lt;/font&gt;" style="edgeLabel;html=1;align=center;verticalAlign=middle;resizable=0;points=[];fontSize=18;fontColor=#000000;" vertex="1" connectable="0" parent="rUWgfQ_uyFMM_7ScdRQF-83">
          <mxGeometry x="-0.0292" y="2" relative="1" as="geometry">
            <mxPoint as="offset" />
          </mxGeometry>
        </mxCell>
        <mxCell id="rUWgfQ_uyFMM_7ScdRQF-85" value="" style="rounded=1;whiteSpace=wrap;html=1;strokeWidth=2;fillWeight=4;hachureGap=8;hachureAngle=45;fillColor=#1ba1e2;sketch=1;" vertex="1" parent="1">
          <mxGeometry x="1780" y="2500" width="190" height="60" as="geometry" />
        </mxCell>
        <mxCell id="rUWgfQ_uyFMM_7ScdRQF-86" value="第三方地图厂商处理" style="text;strokeColor=none;fillColor=none;html=1;fontSize=24;fontStyle=1;verticalAlign=middle;align=center;" vertex="1" parent="1">
          <mxGeometry x="1825" y="2452" width="100" height="40" as="geometry" />
        </mxCell>
        <mxCell id="rUWgfQ_uyFMM_7ScdRQF-87" value="OBS" style="text;html=1;strokeColor=none;fillColor=none;align=center;verticalAlign=middle;whiteSpace=wrap;rounded=0;" vertex="1" parent="1">
          <mxGeometry x="2197.5" y="2777" width="120" height="30" as="geometry" />
        </mxCell>
        <mxCell id="rUWgfQ_uyFMM_7ScdRQF-88" value="" style="shape=singleArrow;whiteSpace=wrap;html=1;arrowWidth=0.4;arrowSize=0.4;fillColor=#1ba1e2;rounded=1;strokeWidth=2;fillWeight=4;hachureGap=8;hachureAngle=45;sketch=1;" vertex="1" parent="1">
          <mxGeometry x="2510" y="2700" width="80" height="60" as="geometry" />
        </mxCell>
        <mxCell id="rUWgfQ_uyFMM_7ScdRQF-89" value="" style="rounded=1;whiteSpace=wrap;html=1;strokeWidth=2;fillWeight=4;hachureGap=8;hachureAngle=45;fillColor=#1ba1e2;sketch=1;" vertex="1" parent="1">
          <mxGeometry x="2730" y="2590" width="190" height="60" as="geometry" />
        </mxCell>
        <mxCell id="rUWgfQ_uyFMM_7ScdRQF-90" value="&lt;font color=&quot;#000000&quot;&gt;多模态数据服务&lt;/font&gt;" style="text;strokeColor=none;fillColor=none;html=1;fontSize=24;fontStyle=1;verticalAlign=middle;align=center;fontColor=#FF6666;" vertex="1" parent="1">
          <mxGeometry x="2775" y="2537" width="100" height="40" as="geometry" />
        </mxCell>
        <mxCell id="rUWgfQ_uyFMM_7ScdRQF-91" value="服务清单" style="swimlane;fontStyle=0;childLayout=stackLayout;horizontal=1;startSize=30;horizontalStack=0;resizeParent=1;resizeParentMax=0;resizeLast=0;collapsible=1;marginBottom=0;fontSize=18;fontColor=#000000;strokeColor=#FFFF99;fillColor=#FFFFFF;" vertex="1" parent="1">
          <mxGeometry x="2710" y="2687" width="240" height="120" as="geometry" />
        </mxCell>
        <mxCell id="rUWgfQ_uyFMM_7ScdRQF-92" value="矢量数据-----&gt;WFS服务" style="text;strokeColor=none;fillColor=none;align=left;verticalAlign=middle;spacingLeft=4;spacingRight=4;overflow=hidden;points=[[0,0.5],[1,0.5]];portConstraint=eastwest;rotatable=0;fontSize=18;fontColor=#000000;" vertex="1" parent="rUWgfQ_uyFMM_7ScdRQF-91">
          <mxGeometry y="30" width="240" height="30" as="geometry" />
        </mxCell>
        <mxCell id="rUWgfQ_uyFMM_7ScdRQF-93" value="矢量瓦片------&gt;WMTS服务" style="text;strokeColor=none;fillColor=none;align=left;verticalAlign=middle;spacingLeft=4;spacingRight=4;overflow=hidden;points=[[0,0.5],[1,0.5]];portConstraint=eastwest;rotatable=0;fontSize=18;fontColor=#000000;" vertex="1" parent="rUWgfQ_uyFMM_7ScdRQF-91">
          <mxGeometry y="60" width="240" height="30" as="geometry" />
        </mxCell>
        <mxCell id="rUWgfQ_uyFMM_7ScdRQF-94" value="地图搜索服务" style="text;strokeColor=none;fillColor=none;align=left;verticalAlign=middle;spacingLeft=4;spacingRight=4;overflow=hidden;points=[[0,0.5],[1,0.5]];portConstraint=eastwest;rotatable=0;fontSize=18;fontColor=#000000;" vertex="1" parent="rUWgfQ_uyFMM_7ScdRQF-91">
          <mxGeometry y="90" width="240" height="30" as="geometry" />
        </mxCell>
        <mxCell id="rUWgfQ_uyFMM_7ScdRQF-95" value="基于资产视角" style="text;html=1;strokeColor=#FFFF99;fillColor=#FF3333;align=center;verticalAlign=middle;whiteSpace=wrap;rounded=0;" vertex="1" parent="1">
          <mxGeometry x="2950" y="2722" width="85" height="30" as="geometry" />
        </mxCell>
      </root>
    </mxGraphModel>
  </diagram>
</mxfile>
